<?xml version="1.0" encoding="UTF-8" standalone="no"?>
<svg
   xmlns:dc="http://purl.org/dc/elements/1.1/"
   xmlns:cc="http://creativecommons.org/ns#"
   xmlns:rdf="http://www.w3.org/1999/02/22-rdf-syntax-ns#"
   xmlns:svg="http://www.w3.org/2000/svg"
   xmlns="http://www.w3.org/2000/svg"
   xmlns:sodipodi="http://sodipodi.sourceforge.net/DTD/sodipodi-0.dtd"
   xmlns:inkscape="http://www.inkscape.org/namespaces/inkscape"
   version="1.1"
   x="0px"
   y="0px"
   width="399.529px"
   height="83.431px"
   viewBox="0 0 399.529 83.431"
   enable-background="new 0 0 399.529 83.431"
   xml:space="preserve"
   id="svg18"
   sodipodi:docname="logo.svg"
   inkscape:version="1.0.2 (e86c870879, 2021-01-15)"><metadata
   id="metadata24"><rdf:RDF><cc:Work
       rdf:about=""><dc:format>image/svg+xml</dc:format><dc:type
         rdf:resource="http://purl.org/dc/dcmitype/StillImage" /><dc:title></dc:title></cc:Work></rdf:RDF></metadata><defs
   id="defs22" /><sodipodi:namedview
   pagecolor="#ffffff"
   bordercolor="#666666"
   borderopacity="1"
   objecttolerance="10"
   gridtolerance="10"
   guidetolerance="10"
   inkscape:pageopacity="0"
   inkscape:pageshadow="2"
   inkscape:window-width="3440"
   inkscape:window-height="1381"
   id="namedview20"
   showgrid="false"
   inkscape:zoom="2.8758864"
   inkscape:cx="62.837215"
   inkscape:cy="41.7155"
   inkscape:window-x="0"
   inkscape:window-y="0"
   inkscape:window-maximized="1"
   inkscape:current-layer="svg18" />
<g
   id="Font">
	<path
   d="M60.032,11.023c5.158,4.311,7.738,10.955,7.738,19.928c0,8.976-2.633,15.547-7.897,19.716   c-5.265,4.17-13.339,6.254-24.221,6.254H22.508v21.73H10V4.557h25.44C46.676,4.557,54.873,6.713,60.032,11.023z M51.181,41.604   c2.508-2.65,3.763-6.536,3.763-11.66c0-5.123-1.59-8.745-4.77-10.865c-3.18-2.12-8.162-3.18-14.946-3.18h-12.72v29.68H37.03   C43.955,45.579,48.671,44.254,51.181,41.604z"
   id="path2" />
	<path
   d="M107.802,19.715l-25.97,58.936H68.476l32.648-74.094h13.356l32.648,74.094h-13.356L107.802,19.715z"
   id="path4" />
	<path
   d="M191.223,67.309c4.31,0,8.02-0.724,11.13-2.173c3.109-1.447,6.36-3.763,9.752-6.943l8.056,8.268   c-7.844,8.692-17.368,13.038-28.567,13.038c-11.201,0-20.494-3.604-27.878-10.812c-7.385-7.208-11.077-16.324-11.077-27.348   s3.763-20.209,11.289-27.56c7.526-7.349,17.03-11.024,28.514-11.024c11.483,0,21.076,4.24,28.779,12.72l-7.95,8.692   c-3.535-3.392-6.874-5.759-10.017-7.102c-3.145-1.342-6.837-2.014-11.077-2.014c-7.491,0-13.78,2.421-18.868,7.261   c-5.088,4.841-7.632,11.024-7.632,18.55s2.526,13.816,7.579,18.868C178.307,64.783,184.296,67.309,191.223,67.309z"
   id="path6" />
	<path
   d="M263.408,16.005v62.646h-12.508V16.005h-22.472V4.557h57.452v11.448H263.408z"
   id="path8" />
</g>
<g
   id="Link">
	<g
   id="g15">
		<path
   fill-rule="evenodd"
   clip-rule="evenodd"
   d="M339.271,65.071c5.886-0.816,11.002-2.573,15.338-6.325    c0.676,0.412,1.29,0.788,1.906,1.162c2.272,1.379,4.601,2.677,6.811,4.154c3.665,2.455,9.307,0.695,11.507-2.805    c2.229-3.544,1.803-8.192-1.202-10.994c-1.124-1.05-2.553-1.787-3.885-2.599c-6.099-3.719-12.253-7.352-18.302-11.15    c-2.331-1.462-6.863-1.548-9.098,0.479c0.778,0.851,1.563,1.708,2.373,2.592c-4.877,0-9.672,0-14.475,0c0-4.987,0-9.739,0-14.868    c1.006,0.911,1.717,1.553,2.48,2.244c0.291-0.176,0.563-0.309,0.801-0.486c4.874-3.653,10.412-4.917,16.37-4.282    c3.397,0.361,6.543,1.715,9.463,3.465c6.218,3.725,12.398,7.512,18.576,11.304c4.115,2.525,7.54,5.727,9.524,10.233    c2.881,6.544,2.784,13.009-0.473,19.435c-1.714,3.383-4.126,6.121-7.265,8.169c-4.515,2.949-9.471,4.096-14.884,3.479    c-3.787-0.431-7.102-1.96-10.291-3.854c-4.526-2.688-9.008-5.456-13.507-8.194C340.556,65.936,340.09,65.61,339.271,65.071z"
   id="path11" />
		<path
   fill-rule="evenodd"
   clip-rule="evenodd"
   d="M341.752,44.853c-0.68-0.77-1.291-1.462-1.998-2.261c4.899,0,9.639,0,14.376,0    c0,4.971,0,9.742,0,14.514c-0.117,0.06-0.234,0.119-0.352,0.179c-0.692-0.882-1.386-1.763-1.986-2.526    c-2.095,1.197-3.734,2.335-5.527,3.121c-6.47,2.833-12.987,2.959-19.251-0.495c-5.474-3.018-10.78-6.339-16.157-9.531    c-2.999-1.78-6.059-3.487-8.511-6.028c-5.379-5.575-7.41-12.209-5.961-19.813c1.136-5.955,4.345-10.664,9.354-14.014    c4.288-2.868,9.08-4.02,14.276-3.554c4.115,0.369,7.719,1.998,11.174,4.097c4.278,2.602,8.555,5.208,12.83,7.815    c0.201,0.123,0.383,0.283,0.709,0.528c-5.783,0.675-10.891,2.529-15.338,6.26c-2.311-1.397-4.664-2.645-6.82-4.169    c-2.974-2.104-7.865-1.876-10.769,1.103c-4.166,4.275-3.122,10.717,1.253,13.39c6.635,4.051,13.267,8.105,19.916,12.128    C335.539,47.148,339.378,46.832,341.752,44.853z"
   id="path13" />
	</g>
</g>
<rect
   id="rect26"
   width="37.914463"
   height="12.420335"
   x="88.653732"
   y="44.820816" /><g
   id="g90"
   transform="matrix(0.48231388,0,0,0.40575952,157.7779,12.092309)"><path
     d="M 71.05,23.68 C 44.99,23.68 23.78,44.9 23.78,70.95 23.78,97 45,118.22 71.05,118.22 97.1,118.22 118.32,97 118.32,70.95 118.32,44.9 97.1,23.68 71.05,23.68 Z m -0.07,4.2 a 3.1,3.11 0 0 1 3.02,3.11 3.11,3.11 0 0 1 -6.22,0 3.11,3.11 0 0 1 3.2,-3.11 z M 78.1,33 a 38.27,38.27 0 0 1 26.2,18.66 l -3.67,8.28 c -0.63,1.43 0.02,3.11 1.44,3.75 l 7.06,3.13 a 38.27,38.27 0 0 1 0.08,6.64 h -3.93 c -0.39,0 -0.55,0.26 -0.55,0.64 v 1.8 c 0,4.24 -2.39,5.17 -4.49,5.4 -2,0.23 -4.21,-0.84 -4.49,-2.06 -1.18,-6.63 -3.14,-8.04 -6.24,-10.49 3.85,-2.44 7.85,-6.05 7.85,-10.87 0,-5.21 -3.57,-8.49 -6,-10.1 -3.42,-2.25 -7.2,-2.7 -8.22,-2.7 H 42.54 A 38.27,38.27 0 0 1 63.95,33 l 4.79,5.02 c 1.08,1.13 2.87,1.18 4,0.09 z M 33.9,56.02 a 3.11,3.11 0 0 1 3.02,3.11 3.11,3.11 0 0 1 -6.22,0 3.11,3.11 0 0 1 3.2,-3.11 z m 74.15,0.14 a 3.11,3.11 0 0 1 3.02,3.11 3.11,3.11 0 0 1 -6.22,0 3.11,3.11 0 0 1 3.2,-3.11 z m -68.29,0.5 h 5.42 V 81.1 H 34.24 A 38.27,38.27 0 0 1 33,66.49 l 6.7,-2.98 c 1.43,-0.64 2.08,-2.31 1.44,-3.74 z m 22.62,0.26 h 12.91 c 0.67,0 4.71,0.77 4.71,3.8 0,2.51 -3.1,3.41 -5.65,3.41 H 62.37 Z m 0,17.56 h 9.89 c 0.9,0 4.83,0.26 6.08,5.28 0.39,1.54 1.26,6.56 1.85,8.17 0.59,1.8 2.98,5.4 5.53,5.4 h 16.14 a 38.27,38.27 0 0 1 -3.54,4.1 l -6.57,-1.41 c -1.53,-0.33 -3.04,0.65 -3.37,2.18 l -1.56,7.28 A 38.27,38.27 0 0 1 54.92,105.33 L 53.36,98.05 C 53.03,96.52 51.53,95.54 50,95.87 l -6.43,1.38 a 38.27,38.27 0 0 1 -3.32,-3.92 h 31.27 c 0.35,0 0.59,-0.06 0.59,-0.39 V 81.88 c 0,-0.32 -0.24,-0.39 -0.59,-0.39 H 62.37 Z M 47.95,99.81 a 3.11,3.11 0 0 1 3.02,3.11 3.11,3.11 0 0 1 -6.22,0 3.11,3.11 0 0 1 3.2,-3.11 z M 94,99.95 a 3.11,3.11 0 0 1 3.02,3.11 3.11,3.11 0 0 1 -6.22,0 3.11,3.11 0 0 1 3.2,-3.11 z"
     id="path76" /><path
     d="M 115.68,70.95 A 44.63,44.63 0 0 1 71.05,115.58 44.63,44.63 0 0 1 26.42,70.95 44.63,44.63 0 0 1 71.05,26.32 44.63,44.63 0 0 1 115.68,70.95 Z m -0.84,-4.31 6.96,4.31 -6.96,4.31 5.98,5.59 -7.66,2.87 4.78,6.65 -8.09,1.32 3.4,7.46 -8.19,-0.29 1.88,7.98 -7.98,-1.88 0.29,8.19 -7.46,-3.4 -1.32,8.09 -6.65,-4.78 -2.87,7.66 -5.59,-5.98 -4.31,6.96 -4.31,-6.96 -5.59,5.98 -2.87,-7.66 -6.65,4.78 -1.32,-8.09 -7.46,3.4 0.29,-8.19 -7.98,1.88 1.88,-7.98 -8.19,0.29 3.4,-7.46 -8.09,-1.32 4.78,-6.65 -7.66,-2.87 5.98,-5.59 -6.96,-4.31 6.96,-4.31 -5.98,-5.59 7.66,-2.87 -4.78,-6.65 8.09,-1.32 -3.4,-7.46 8.19,0.29 -1.88,-7.98 7.98,1.88 -0.29,-8.19 7.46,3.4 1.32,-8.09 6.65,4.78 2.87,-7.66 5.59,5.98 4.31,-6.96 4.31,6.96 5.59,-5.98 2.87,7.66 6.65,-4.78 1.32,8.09 7.46,-3.4 -0.29,8.19 7.98,-1.88 -1.88,7.98 8.19,-0.29 -3.4,7.46 8.09,1.32 -4.78,6.65 7.66,2.87 z"
     fill-rule="evenodd"
     stroke="#000000"
     stroke-linecap="round"
     stroke-linejoin="round"
     stroke-width="3"
     id="path78" /></g></svg>
